<?xml version="1.0" standalone="no"?>
<!DOCTYPE svg PUBLIC "-//W3C//DTD SVG 20010904//EN"
 "http://www.w3.org/TR/2001/REC-SVG-20010904/DTD/svg10.dtd">
<svg version="1.0" xmlns="http://www.w3.org/2000/svg"
 width="1500.000000pt" height="1500.000000pt" viewBox="0 0 1500.000000 1500.000000"
 preserveAspectRatio="xMidYMid meet">

<g transform="translate(0.000000,1500.000000) scale(0.100000,-0.100000)"
fill="#000000" stroke="none">
<path d="M8810 12699 c-625 -130 -760 -151 -1870 -294 -146 -19 -348 -46 -449
-60 -101 -14 -185 -24 -187 -22 -2 2 10 67 27 146 18 78 30 143 28 145 -2 2
-159 -32 -349 -75 -439 -101 -593 -132 -810 -163 -285 -41 -476 -56 -732 -56
l-238 0 0 95 0 95 -35 0 c-46 0 -494 -36 -695 -56 -194 -19 -378 -44 -686 -94
-391 -64 -631 -88 -1114 -110 -129 -6 -236 -13 -239 -16 -7 -6 -942 -8766
-937 -8772 3 -2 215 32 471 77 256 46 471 81 478 79 10 -2 3 -88 -30 -398 -23
-217 -41 -395 -40 -397 2 -1 660 115 1462 257 979 174 1461 264 1465 272 2 7
29 103 60 213 50 181 57 200 78 203 19 3 22 0 18 -20 -12 -53 -88 -760 -82
-765 3 -3 709 113 1568 258 l1563 264 87 385 c48 212 88 391 90 398 2 7 35
-29 73 -80 83 -109 281 -312 381 -391 94 -73 243 -171 325 -213 57 -28 77 -46
135 -121 402 -515 991 -803 1642 -803 437 0 853 106 1317 335 877 431 1610
1273 2084 2392 211 498 346 1046 416 1678 29 274 63 765 51 765 -4 0 -151 -27
-327 -61 -176 -34 -323 -58 -326 -55 -3 3 0 47 6 98 24 197 79 973 70 982 -2
2 -203 -33 -445 -79 -506 -96 -987 -179 -1319 -229 -186 -28 -829 -116 -849
-116 -19 0 206 452 318 637 100 166 210 324 308 440 58 68 76 84 106 89 20 4
113 21 205 39 l169 32 19 -31 c57 -93 102 -238 169 -543 21 -96 40 -176 42
-178 2 -2 474 85 1048 194 l1045 198 3 164 c9 467 -67 908 -212 1236 -105 237
-276 473 -454 627 -81 71 -89 81 -117 154 -69 182 -189 385 -320 541 -337 403
-822 656 -1368 711 -172 18 -536 8 -707 -19 -677 -107 -1380 -435 -1955 -911
-44 -37 -91 -73 -105 -82 -27 -17 -287 -64 -297 -54 -6 6 25 99 249 730 81
231 147 420 145 421 -1 1 -193 -38 -427 -86z m-408 -861 c-211 -638 -576
-1914 -836 -2923 -386 -1499 -711 -2834 -969 -3985 -52 -231 -78 -326 -88
-328 -82 -15 -2443 -411 -2445 -409 -1 1 105 940 237 2087 131 1147 239 2093
239 2103 0 16 -8 18 -67 15 l-68 -3 -538 -1974 c-295 -1086 -539 -1977 -541
-1979 -6 -5 -2257 -404 -2260 -400 -4 3 823 7730 826 7733 2 2 104 10 228 19
263 19 449 42 798 97 468 73 832 113 832 90 0 -7 -34 -224 -75 -484 -41 -260
-111 -708 -155 -997 -44 -289 -126 -799 -181 -1135 -128 -781 -349 -2167 -349
-2189 0 -4 37 -6 83 -4 l82 3 211 740 c116 407 295 1028 397 1380 102 352 265
917 360 1255 96 338 208 732 250 875 41 143 82 294 92 336 l18 77 171 6 c317
13 606 47 915 107 84 17 155 28 158 25 3 -2 -2 -60 -11 -128 -9 -68 -31 -292
-51 -498 -19 -206 -50 -537 -69 -735 -19 -198 -51 -547 -71 -775 -91 -1057
-207 -2369 -220 -2505 -8 -82 -15 -153 -15 -157 0 -7 200 -12 200 -5 0 1 234
1057 518 2347 l518 2345 79 12 c84 13 170 24 960 128 447 59 795 111 895 134
19 4 37 7 38 5 2 -1 -41 -139 -96 -306z m5503 -1439 c42 -121 77 -262 99 -404
17 -108 41 -433 33 -441 -4 -4 -1470 -284 -1488 -284 -3 0 -19 51 -37 114 -17
63 -47 158 -67 211 -20 53 -35 98 -33 99 2 1 309 60 683 130 374 71 684 131
689 134 9 5 0 632 -10 702 -7 54 87 -135 131 -261z m-2670 -84 c37 -64 70
-168 114 -358 l41 -178 -73 -87 c-132 -156 -234 -301 -357 -507 -89 -149 -276
-524 -354 -708 -46 -107 -63 -138 -80 -142 -11 -2 -113 -16 -226 -30 -113 -14
-220 -28 -237 -31 -25 -5 -33 -3 -33 8 0 46 184 559 290 813 245 579 596 1120
829 1277 24 16 26 16 44 0 11 -9 29 -35 42 -57z m2531 -2982 c-38 -544 -166
-1154 -334 -1598 -79 -208 -109 -276 -233 -525 -264 -529 -528 -900 -901
-1266 -395 -388 -776 -626 -1262 -789 -302 -101 -551 -141 -826 -132 -336 11
-633 104 -900 282 l-85 57 45 -6 c25 -4 115 -9 200 -13 612 -24 1359 223 1947
645 502 360 966 884 1308 1477 326 566 550 1156 671 1767 l27 137 51 10 c153
31 254 49 275 50 l24 1 -7 -97z m-6451 -2213 c21 -63 62 -173 92 -244 29 -72
53 -135 53 -140 1 -18 -203 -921 -209 -928 -8 -9 -2452 -420 -2458 -414 -6 5
41 434 48 440 2 1 470 81 1039 176 569 95 1036 174 1038 176 2 1 59 249 127
550 67 302 133 592 145 644 l23 95 32 -120 c17 -66 49 -172 70 -235z m-3780
-1315 c-12 -102 -20 -187 -18 -189 2 -2 128 18 279 44 l276 47 -6 -30 c-4 -17
-10 -34 -16 -37 -14 -9 -2250 -403 -2256 -398 -2 3 6 103 18 223 16 157 27
219 36 223 17 6 1659 299 1688 301 l20 1 -21 -185z"/>
</g>
</svg>
